HIERARCHY
ROOT Hips
{
	OFFSET -14.64140 90.27770 -84.91600
	CHANNELS 6 Xposition Yposition Zposition Zrotation Xrotation Yrotation
	JOINT Spine
	{
		OFFSET 0.00000 13.20850 -1.60436
		CHANNELS 3 Zrotation Xrotation Yrotation
		JOINT Spine1
		{
			OFFSET 0.00000 8.61716 0.00000
			CHANNELS 3 Zrotation Xrotation Yrotation
			JOINT Spine2
			{
				OFFSET 0.00000 8.61717 0.00000
				CHANNELS 3 Zrotation Xrotation Yrotation
				JOINT Spine3
				{
					OFFSET 0.00000 8.61717 0.00000
					CHANNELS 3 Zrotation Xrotation Yrotation
					JOINT Neck
					{
						OFFSET 0.00000 11.07920 1.10792
						CHANNELS 3 Zrotation Xrotation Yrotation
						JOINT Neck1
						{
							OFFSET 0.00000 7.08032 0.00000
							CHANNELS 3 Zrotation Xrotation Yrotation
							JOINT Head
							{
								OFFSET 0.00000 7.08031 0.00000
								CHANNELS 3 Zrotation Xrotation Yrotation
								End site
								{
									OFFSET 0.00000 0.00000 0.00000
								}
							}
						}
					}
					JOINT RightShoulder
					{
						OFFSET -0.01000 7.91373 5.19711
						CHANNELS 3 Zrotation Xrotation Yrotation
						JOINT RightArm
						{
							OFFSET -18.41580 0.00000 0.00000
							CHANNELS 3 Zrotation Xrotation Yrotation
							JOINT RightForeArm
							{
								OFFSET -29.11090 0.00000 0.00000
								CHANNELS 3 Zrotation Xrotation Yrotation
								JOINT RightHand
								{
									OFFSET -24.65040 0.00000 0.00000
									CHANNELS 3 Zrotation Xrotation Yrotation
									JOINT RightHandThumb1
									{
										OFFSET -5.35114 -0.85590 3.97906
										CHANNELS 3 Zrotation Xrotation Yrotation
										JOINT RightHandThumb2
										{
											OFFSET -4.52789 0.00000 0.00000
											CHANNELS 3 Zrotation Xrotation Yrotation
											JOINT RightHandThumb3
											{
												OFFSET -2.46976 0.00000 0.00000
												CHANNELS 3 Zrotation Xrotation Yrotation
												End site
												{
													OFFSET 0.00000 0.00000 0.00000
												}
											}
										}
									}
									JOINT RightHandIndex1
									{
										OFFSET -14.26970 0.00000 2.88139
										CHANNELS 3 Zrotation Xrotation Yrotation
										JOINT RightHandIndex2
										{
											OFFSET -5.48836 0.00000 0.00000
											CHANNELS 3 Zrotation Xrotation Yrotation
											JOINT RightHandIndex3
											{
												OFFSET -3.01859 0.00000 0.00000
												CHANNELS 3 Zrotation Xrotation Yrotation
												End site
												{
													OFFSET 0.00000 0.00000 0.00000
												}
											}
										}
									}
									JOINT RightHandMiddle1
									{
										OFFSET -14.26970 0.00000 -0.09147
										CHANNELS 3 Zrotation Xrotation Yrotation
										JOINT RightHandMiddle2
										{
											OFFSET -6.17441 0.00000 0.00000
											CHANNELS 3 Zrotation Xrotation Yrotation
											JOINT RightHandMiddle3
											{
												OFFSET -3.56743 0.00000 0.00000
												CHANNELS 3 Zrotation Xrotation Yrotation
												End site
												{
													OFFSET 0.00000 0.00000 0.00000
												}
											}
										}
									}
									JOINT RightHandRing1
									{
										OFFSET -12.69180 0.00000 -3.06433
										CHANNELS 3 Zrotation Xrotation Yrotation
										JOINT RightHandRing2
										{
											OFFSET -5.62556 0.00000 0.00000
											CHANNELS 3 Zrotation Xrotation Yrotation
											JOINT RightHandRing3
											{
												OFFSET -3.56744 0.00000 0.00000
												CHANNELS 3 Zrotation Xrotation Yrotation
												End site
												{
													OFFSET 0.00000 0.00000 0.00000
												}
											}
										}
									}
									JOINT RightHandPinky1
									{
										OFFSET -11.11390 0.00000 -6.03719
										CHANNELS 3 Zrotation Xrotation Yrotation
										JOINT RightHandPinky2
										{
											OFFSET -4.52789 0.00000 0.00000
											CHANNELS 3 Zrotation Xrotation Yrotation
											JOINT RightHandPinky3
											{
												OFFSET -2.46976 0.00000 0.00000
												CHANNELS 3 Zrotation Xrotation Yrotation
												End site
												{
													OFFSET 0.00000 0.00000 0.00000
												}
											}
										}
									}
								}
							}
						}
					}
					JOINT LeftShoulder
					{
						OFFSET 0.01000 7.91373 5.19711
						CHANNELS 3 Zrotation Xrotation Yrotation
						JOINT LeftArm
						{
							OFFSET 18.41580 0.00000 0.00000
							CHANNELS 3 Zrotation Xrotation Yrotation
							JOINT LeftForeArm
							{
								OFFSET 29.11090 0.00000 0.00000
								CHANNELS 3 Zrotation Xrotation Yrotation
								JOINT LeftHand
								{
									OFFSET 24.65040 0.00000 0.00000
									CHANNELS 3 Zrotation Xrotation Yrotation
									JOINT LeftHandThumb1
									{
										OFFSET 5.35114 -0.85590 3.97906
										CHANNELS 3 Zrotation Xrotation Yrotation
										JOINT LeftHandThumb2
										{
											OFFSET 4.52789 0.00000 0.00000
											CHANNELS 3 Zrotation Xrotation Yrotation
											JOINT LeftHandThumb3
											{
												OFFSET 2.46977 0.00000 0.00000
												CHANNELS 3 Zrotation Xrotation Yrotation
												End site
												{
													OFFSET 0.00000 0.00000 0.00000
												}
											}
										}
									}
									JOINT LeftHandIndex1
									{
										OFFSET 14.26970 0.00000 2.88139
										CHANNELS 3 Zrotation Xrotation Yrotation
										JOINT LeftHandIndex2
										{
											OFFSET 5.48836 0.00000 0.00000
											CHANNELS 3 Zrotation Xrotation Yrotation
											JOINT LeftHandIndex3
											{
												OFFSET 3.01859 0.00000 0.00000
												CHANNELS 3 Zrotation Xrotation Yrotation
												End site
												{
													OFFSET 0.00000 0.00000 0.00000
												}
											}
										}
									}
									JOINT LeftHandMiddle1
									{
										OFFSET 14.26970 0.00000 -0.09147
										CHANNELS 3 Zrotation Xrotation Yrotation
										JOINT LeftHandMiddle2
										{
											OFFSET 6.17440 0.00000 0.00000
											CHANNELS 3 Zrotation Xrotation Yrotation
											JOINT LeftHandMiddle3
											{
												OFFSET 3.56744 0.00000 0.00000
												CHANNELS 3 Zrotation Xrotation Yrotation
												End site
												{
													OFFSET 0.00000 0.00000 0.00000
												}
											}
										}
									}
									JOINT LeftHandRing1
									{
										OFFSET 12.69180 0.00000 -3.06433
										CHANNELS 3 Zrotation Xrotation Yrotation
										JOINT LeftHandRing2
										{
											OFFSET 5.62556 0.00000 0.00000
											CHANNELS 3 Zrotation Xrotation Yrotation
											JOINT LeftHandRing3
											{
												OFFSET 3.56744 0.00000 0.00000
												CHANNELS 3 Zrotation Xrotation Yrotation
												End site
												{
													OFFSET 0.00000 0.00000 0.00000
												}
											}
										}
									}
									JOINT LeftHandPinky1
									{
										OFFSET 11.11390 0.00000 -6.03719
										CHANNELS 3 Zrotation Xrotation Yrotation
										JOINT LeftHandPinky2
										{
											OFFSET 4.52789 0.00000 0.00000
											CHANNELS 3 Zrotation Xrotation Yrotation
											JOINT LeftHandPinky3
											{
												OFFSET 2.46976 0.00000 0.00000
												CHANNELS 3 Zrotation Xrotation Yrotation
												End site
												{
													OFFSET 0.00000 0.00000 0.00000
												}
											}
										}
									}
								}
							}
						}
					}
					JOINT pCube4
					{
						OFFSET 0.00000 10.91090 1.10792
						CHANNELS 3 Zrotation Xrotation Yrotation
						End site
						{
							OFFSET 0.00000 0.00000 0.00000
						}
					}
				}
			}
		}
	}
	JOINT RightUpLeg
	{
		OFFSET -9.98441 0.00000 0.00000
		CHANNELS 3 Zrotation Xrotation Yrotation
		JOINT RightLeg
		{
			OFFSET 0.00000 -42.11790 0.00000
			CHANNELS 3 Zrotation Xrotation Yrotation
			JOINT RightFoot
			{
				OFFSET 0.00000 -45.00020 -0.00001
				CHANNELS 3 Zrotation Xrotation Yrotation
				JOINT RightForeFoot
				{
					OFFSET 0.00000 -3.74820 0.00000
					CHANNELS 3 Zrotation Xrotation Yrotation
					JOINT RightToeBase
					{
						OFFSET 0.00000 0.06325 14.43120
						CHANNELS 3 Zrotation Xrotation Yrotation
						End site
						{
							OFFSET 0.00000 0.00000 0.00000
						}
					}
				}
			}
		}
	}
	JOINT LeftUpLeg
	{
		OFFSET 9.98441 0.00000 0.00000
		CHANNELS 3 Zrotation Xrotation Yrotation
		JOINT LeftLeg
		{
			OFFSET 0.00000 -42.11800 0.00000
			CHANNELS 3 Zrotation Xrotation Yrotation
			JOINT LeftFoot
			{
				OFFSET 0.00000 -45.00070 0.00000
				CHANNELS 3 Zrotation Xrotation Yrotation
				JOINT LeftForeFoot
				{
					OFFSET 0.00000 -3.74824 0.00000
					CHANNELS 3 Zrotation Xrotation Yrotation
					JOINT LeftToeBase
					{
						OFFSET 0.00000 0.06325 14.43110
						CHANNELS 3 Zrotation Xrotation Yrotation
						End site
						{
							OFFSET 0.00000 0.00000 0.00000
						}
					}
				}
			}
		}
	}
}
MOTION
Frames: 4
Frame Time: 0.050000
0.013148960366668364 -0.019599762595266492 -0.03894295319297545 -0.0431748132693305 0.010951236697007503 0.020475529142680835 5.242464747229699 3.417212881585539 -2.3157660824382686 -0.818623314291813 3.4741235153908048 0.4377802498432227 -0.5996371576021289 -0.8201668954077386 1.0270644168446101 -0.7899515823166052 -0.5449274243332793 -0.19646211324835197 -0.32064076986359075 11.187310461371457 -0.5598211725300267 0.011818309272109775 -1.054350600029379 -1.2706925562511586 0.26868967457419307 -17.729405318450848 -0.15070437126542852 -10.976588588325837 3.9298142039215924 -17.332219971686403 81.86846834430486 -4.560970142822231 13.0319853190908 31.266545141172095 1.766846731694735 95.15771432374387 9.272365769788452 -0.4636083813884115 -3.940204893041783 4.563875556740607 -0.1443174852436549 -1.5635911902588262 -0.004448982779997122 -0.03364085704263405 -56.24898961300399 -0.020577566183727924 0.04617774798850993 -56.26642849346064 -38.73556801578868 -0.02187644180470669 -0.014343197303885781 -0.03937269822945942 0.005395874232802466 -0.021850463428701547 -0.04679551402695483 -0.006610129236426615 -0.01768057569826156 -36.74253256307695 -0.045871829269436525 -0.02610170107693372 -0.008796786085279368 0.015626673832454887 0.012369300959473264 0.024144417662779607 -0.022313012817714774 0.04154643904319933 -19.742285924575334 0.04321012805118826 -0.0038336116116462985 -0.0005052211234516266 -0.005614176752884958 -0.049457073151496764 0.03213877350713192 0.02103778016504838 0.010719178737007562 24.0273808319242 0.024416794441906885 -0.013384639718585622 28.840431743296698 -0.028516775448922855 0.012536653445509803 28.842036009044214 0.018503415655007703 -0.044462052283618825 10.124984259476083 2.4487439121557233 14.225238060668158 -77.14994060227322 18.445393639020182 -13.093859811733358 -9.345515912471678 12.18050202833492 -56.34717534323386 -18.983865630462958 -2.334371676133305 3.2139890363515216 -0.508558228211422 0.03683412900428988 -8.142688328674625 0.007535287467516598 0.03369103181497368 44.587400678035905 0.034546487925131354 -0.010400242904121011 44.60049230844622 12.495574221906349 -0.027331245225524006 -0.026007039002054956 -0.026138775007148587 0.03229320987200403 -0.003681665888612648 -0.018993753984900913 -0.014496850713985477 -0.0005210541586673541 11.06317330035401 0.01621189588841265 -0.017197875640128354 -0.04648222069879198 -0.032406435901781064 0.03371904966546573 0.000728001569178909 -0.024163698755910137 -0.005843403330623287 4.786866445613849 0.04049638818667251 -0.028543296880062005 -0.020124169619161424 -0.000420071359744512 0.022642335767151158 0.01195096078578767 -0.027299438704421062 -0.0035767396773312217 -5.613077672509025 -0.027353458924397722 0.003299282578410435 -6.716467398664081 0.047851170743933316 -0.03793383187112979 -6.730156238281142 0.018013493366251243 -0.018737720101337993 0.014663995355518862 -0.04039652962629582 -0.00949276093410011 8.030315742671988 3.4843665376769817 -19.177600580465263 0.03409904042719178 10.421887964379662 0.014069776936946126 -5.635991989397293 -15.690063002584901 3.1476498120837904 0.048841550820716936 -0.014856103673912333 -0.01549775746627076 -0.0471670998101034 4.7231976042233965 0.027440947624011697 12.487558266072503 -8.257466700942555 6.835188326151059 -0.04243501478471249 46.427447208791655 -0.045757356711571835 -4.374179851193407 -14.70115609498792 -3.852827776417774 -0.005141343139292939 0.001988126768691986 0.010168886379948349 0.022849533656103694 -10.794399920017927 -0.028493539724517836 
-0.04856035383638482 0.006277412958990355 0.013010106898352894 0.012022560576623617 0.04073278822422721 -0.03719585140407607 5.281764855763054 3.2910520780202606 -2.2378540359703964 -0.8029420198244602 3.4616668910268578 0.4126296825771779 -0.5810280301162687 -0.8249285513413941 1.2353094779853708 -0.7423539977336291 -0.5391581938777057 -0.211592130639681 -0.12822218214826847 11.231659686442233 -0.8548310582214778 0.01037041413198751 -1.0892103751580438 -1.9950168148615632 0.38128912072089954 -17.782955069253223 -0.1987524529453855 -10.919991752702026 3.876386112416674 -17.440347270765955 81.27621639982524 -3.995671932400043 13.227749978220622 30.70372022402185 2.283994174133152 94.9348727649024 9.613785458772485 -0.48440302916193867 -4.0521886142411585 4.495616550806587 -0.11886338526073086 -1.5629552254400778 -0.0031981065034452634 0.029522919138747123 -56.21918307592095 -0.007020252700512473 0.04551961112878174 -56.2296135841862 -38.72987725990327 0.03560224960038484 0.005859065616414942 -0.027585314316058027 -0.03834560923068784 0.00831784157218005 -0.015695823895108006 -0.03254176402710999 0.04065616784225842 -36.71507115662841 -0.0015199588889593099 0.025292604532122728 -0.032876337205882226 -0.033417336266564845 -0.04390011807172269 0.014279778048761751 -0.01178195923044698 -0.033532036461898417 -19.77250300242502 0.044741533299391685 0.0228571200397501 0.039709152351763075 0.03799873692599396 -0.048835972765130964 -0.005779551882828635 -0.005749316938231153 0.033469719841031524 24.070789727349133 0.009028354601243667 -0.024932433631185556 28.88998682444053 0.0007218890930465676 0.026047476028502166 28.85398933694186 -0.04583474146884415 -0.00989108703055821 9.762033983391316 2.372489517403029 14.38270549102062 -77.33925814337108 18.437048674116124 -11.64352497511839 -7.191489083747681 11.817224458262324 -53.191013888019036 -19.27650618864243 -1.9871480125746503 2.9802133239982718 -0.5058357046372938 0.03893719866983154 -8.084889505794973 0.023243226643688077 0.0015164059217059498 44.61036301755834 -0.011944506865648633 -0.042763810240161786 44.59857549944086 12.424757382157436 0.015565924354924175 -0.03260496036107677 0.0202319587547079 -0.032532572326629865 0.02524108751522968 -0.001846446288170758 0.048233865652511504 -0.029363480366502315 11.141923131898915 -0.004732162535737103 0.00112791313018582 -0.03957826957607767 0.00161494170488639 -0.043769738039018076 0.03743532828617951 -0.018062767337200178 0.04850469760137596 4.766361380360902 -0.021844837698502168 -0.036544895827217205 -0.04176909205224561 -0.023854911591242686 0.019664484071739402 0.002903436342110575 -0.008890504998915142 0.03125666622282589 -5.557698891192799 0.03156767265960385 -0.010326315925457139 -6.726453948182077 0.021873144003917506 0.010794700214551632 -6.766448552258237 -0.00021994320376538622 0.0016377081939909417 -0.017555870368582315 -0.013904667810809212 0.004226807985522437 8.035757432661928 3.528532861548657 -19.178064287173342 0.014686030025457476 10.348360488648074 0.061490437371077566 -5.600180504891566 -15.638029901634923 3.1792869344387764 -0.0009888039474282146 -0.04359087775330373 0.016939885131417923 -0.008931153259275059 4.729294111649583 0.0031381606971640085 12.505020999889322 -8.246675007359032 6.846363543980959 -0.005215676685975405 46.35818730510755 0.011067265510501108 -4.375057915674955 -14.76963412652916 -3.7920440282226417 -0.004668511457045908 -0.013751862445646997 -0.01791813635706229 0.021727292714862775 -10.752679606141356 -0.006193678643341968 
-0.013618753601821038 0.03365126709778689 -0.04582631254481853 0.027538772646368233 -0.00894789547939419 0.016127660600188734 5.296861924539282 3.2283238851813616 -2.294131446951206 -0.8334882757164707 3.417267697002904 0.4368448621777572 -0.6150748201815301 -0.8531012894840238 1.3871184224542539 -0.7146818294118706 -0.519574732187 -0.14734573304434911 -0.08957267526843642 11.096626700201357 -1.0425352944195405 0.029040207714980823 -1.1710157333978217 -2.7445715408420446 0.48779265411319533 -17.910569598454003 -0.24678551715342714 -10.853642099924524 3.8507756877829724 -17.546559560664438 80.87496790606177 -3.6221231998360897 12.9780412150166 30.234970200702673 2.809418170369945 94.72864773814577 10.039718544905787 -0.4310818628976147 -4.134535350645631 4.527421670634227 -0.12790574744094182 -1.543481917366371 -0.031647952686629316 0.029913850265762255 -56.229445675716256 0.0027832915766525927 -0.004265900112621413 -56.216408022904226 -38.783713167122094 0.030872450431069693 0.046454959522160576 0.01842512220628821 0.01797433699375313 -0.0013278277981805568 -0.013610318930272078 -0.03640840650399326 -0.006538226184054068 -36.6959714667299 0.037954341163375954 -0.005247925871531266 -0.026581231713752977 0.01607270153035285 -0.027106943112850654 -0.0007173844745875697 -0.011105431135514545 0.004168546782373378 -19.73594613652366 0.00850148921419652 -0.0024358319541681866 0.03314025545762101 -0.015522085860470537 -0.003445079806210153 -0.010704112228079387 -0.006165601988848293 -0.027800709639911932 24.060701177186296 -0.028556444593096496 -0.01298402812291719 28.83590296137741 0.021115749142466736 -0.047316682713318674 28.823882613553412 -0.04636890066820683 0.006684008393483325 9.346468478356327 2.271682186114549 14.387826744090873 -77.41650511757103 18.41398317864727 -10.548937890502122 -5.760416494299644 11.505755796158393 -51.04435303770964 -19.476043602281372 -1.6703943325425012 2.880358514958988 -0.5139371102033007 0.032663548762843116 -8.139832185783517 -0.009633627682464263 0.011215574208087834 44.59740970028967 -0.0075006602036674285 0.03541792009154776 44.60183175213281 12.498445945451998 -0.024283384729466662 0.0375684561195747 -0.020717631516786884 0.0012556308946896839 0.04849658008425883 -0.012204610546602006 0.004926599716481706 0.023905104366820848 11.145639282584147 0.04112303032088222 0.017129507183986512 0.014724367265607 0.035939885806993456 0.03888139954111986 -0.006530196791778519 0.02645055647603828 -0.014604593202183769 4.746074389489799 -0.01902540634769629 0.045437477996605365 0.01753804500479168 -0.008702390770198163 0.034267392708179946 0.032044118956509486 -0.006008510725546453 0.046636921661539384 -5.601888618115349 -0.03171190993131354 0.004448040372221961 -6.681674806173002 0.0175940121338837 0.03386532586201781 -6.717693229084649 0.0237244454859132 -0.02568038682441424 -0.033926500295850856 -0.00656175081395025 -0.023631808083587193 8.094571791032086 3.491680308819451 -19.202679293917136 -0.030760163087747046 10.397639472021162 0.0027909976301769175 -5.640479703379802 -15.658424564492543 3.200775003340441 0.0064466161700450254 0.03470873157836895 -0.03807024007388044 -0.049090146097445574 4.725428828029717 0.024803476191198576 12.457810895111123 -8.19821763596206 6.846392995533779 -0.009692412293687683 46.42251543693951 -0.040073122947334595 -4.346249672069894 -14.797601026178564 -3.7979944504607204 -0.01544159662317787 -0.040084308581038494 -0.0418316376160496 -0.0349122177014261 -10.7162243417407 -0.03935010194359734 
-0.04126185941117198 0.02317104278285669 -0.01199010370147087 0.008865991608119851 -0.01646729513132345 -0.009721215028134458 5.267636785165459 3.2090333989647855 -2.295042958598699 -0.7628873325190602 3.4441975651997447 0.42851526465696355 -0.6405004803279736 -0.8450920973582126 1.4032459507453516 -0.7057745783762653 -0.5555242595048505 -0.18329527551940325 0.06648970430333147 11.04989993606285 -1.330633716309058 0.04340834250503868 -1.2398640261138942 -3.2809915088668733 0.57917211669523 -18.028229747110807 -0.3120811567106362 -10.731018532794913 3.8470267198757564 -17.55498286476495 80.555345437339 -3.2280720508549097 12.591205780311773 29.30738204573017 3.2799348799440318 95.11366392225301 10.57362394128897 -0.5290673732001381 -4.337622773149763 4.487286697526522 -0.1482902371262859 -1.609424051118664 -0.032932531754689826 -0.04397108107756383 -56.23738990799067 -0.042970270258828984 0.0313923663365336 -56.18517170630064 -38.75140847866086 -0.01212534231591635 -0.0492290119816893 0.03808887234850321 0.03364996356209269 -0.02133785437392112 -0.024323463820804383 -0.04339052684347004 0.03563084049176173 -36.64874861419603 -0.03537225355107037 -0.03755325354699095 -0.04839602133674398 -0.049568245018830545 0.03917525290643054 -0.030531055066892285 0.03797896373174992 0.00027475271858841085 -19.77947291313253 0.015492368488274625 -0.03439123034677169 0.02467873884226382 0.03273301015721523 -0.002887390038187204 -0.018065418605251193 -0.011855826578854287 0.004196216033084557 24.074731676029373 -0.023033189845073482 0.003362810659600179 28.843770619456635 0.021315633543569933 -0.015160747158493313 28.861958010650234 0.03640539434585822 -0.046007501185518294 9.086769524559438 2.2740612549664614 14.450075287643092 -77.52598088248928 18.378436247150628 -9.646770079287407 -4.954382627619043 11.370694563766056 -49.879302877716704 -19.67447494863279 -1.5759850404101616 2.7979668454059743 -0.49526261005430505 0.025485277546578346 -8.131493899948167 0.020250096419858653 -0.02410353119829227 44.60199963914656 0.02319334244400286 0.03944224637093461 44.529312409975354 12.47481293668609 0.02385313504311051 -0.01848393205510055 0.006480095151525 -0.0005177540804329443 -0.0367143757937377 0.023258234976959023 -0.03139690350781344 0.0202861296307399 11.07600278785934 -0.019380953943287607 0.01443529976648051 -0.0026276247924003843 0.009714964947584389 -0.0053801335459249325 0.013969542062261996 0.04341202653902863 0.020090991916637494 4.771877747778249 -0.04900518065358348 -0.03828386539115161 0.006822486994466966 0.018228581378372553 0.04539035541237742 -0.014299327526354306 -0.0418802412294585 -0.022093501411392213 -5.608609659682106 0.02670331117306411 0.04677748850458729 -6.700720123312231 0.039949209705807474 -0.010430043919207033 -6.707664397851668 -0.027230958743996753 -0.007460608116351672 0.020234092271240064 -0.018491250694709315 0.014038392498644579 8.003218341471115 3.5254033181424838 -19.239810935605703 -0.00931631858890025 10.396591020995304 0.04991244326618911 -5.586677341547468 -15.65770018212899 3.1874548246894787 -0.04861299726367232 0.0022313024679011515 0.016025387279565997 -0.04931146596332555 4.668444985640457 -0.006693485381108684 12.483028753212654 -8.238081562081106 6.878873770083495 0.015571926770917557 46.41533652352044 -0.01832254017827833 -4.345043237929623 -14.743108091228734 -3.8009901626498683 -0.03731824216143641 -0.016803175652539436 -0.01891428168095371 0.0033727431559917326 -10.737954035640193 0.04412944922062076 
